<mxfile host="app.diagrams.net" modified="2021-08-27T08:02:14.514Z" agent="5.0 (Macintosh; Intel Mac OS X 10_15_7) AppleWebKit/537.36 (KHTML, like Gecko) Chrome/92.0.4515.159 Safari/537.36" etag="S-hp2gHTYkMrpUjqdNZn" version="14.9.9" type="github" pages="2">
  <diagram id="amOM_jmc4MKGQnlsMUiM" name="第 1 页">
    <mxGraphModel dx="946" dy="614" grid="1" gridSize="10" guides="1" tooltips="1" connect="1" arrows="1" fold="1" page="1" pageScale="1" pageWidth="827" pageHeight="1169" math="0" shadow="0">
      <root>
        <mxCell id="0" />
        <mxCell id="1" parent="0" />
        <mxCell id="uyMDHVz3ztJ0EPghvBmj-1" value="" style="ellipse;whiteSpace=wrap;html=1;sketch=1;fillColor=#d5e8d4;strokeColor=#82b366;" vertex="1" parent="1">
          <mxGeometry x="120" y="180" width="120" height="80" as="geometry" />
        </mxCell>
        <mxCell id="uyMDHVz3ztJ0EPghvBmj-2" value="Master" style="text;html=1;strokeColor=none;fillColor=none;align=center;verticalAlign=middle;whiteSpace=wrap;rounded=0;sketch=1;" vertex="1" parent="1">
          <mxGeometry x="160" y="210" width="40" height="20" as="geometry" />
        </mxCell>
        <mxCell id="uyMDHVz3ztJ0EPghvBmj-3" value="" style="ellipse;whiteSpace=wrap;html=1;sketch=1;fillColor=#d5e8d4;strokeColor=#82b366;" vertex="1" parent="1">
          <mxGeometry x="390" y="180" width="120" height="80" as="geometry" />
        </mxCell>
        <mxCell id="uyMDHVz3ztJ0EPghvBmj-4" value="Slave" style="text;html=1;strokeColor=none;fillColor=none;align=center;verticalAlign=middle;whiteSpace=wrap;rounded=0;sketch=1;" vertex="1" parent="1">
          <mxGeometry x="430" y="210" width="40" height="20" as="geometry" />
        </mxCell>
        <mxCell id="uyMDHVz3ztJ0EPghvBmj-5" value="" style="endArrow=classic;html=1;exitX=1;exitY=0.5;exitDx=0;exitDy=0;entryX=0;entryY=0.5;entryDx=0;entryDy=0;" edge="1" parent="1" source="uyMDHVz3ztJ0EPghvBmj-1" target="uyMDHVz3ztJ0EPghvBmj-3">
          <mxGeometry width="50" height="50" relative="1" as="geometry">
            <mxPoint x="390" y="340" as="sourcePoint" />
            <mxPoint x="440" y="290" as="targetPoint" />
          </mxGeometry>
        </mxCell>
        <mxCell id="uyMDHVz3ztJ0EPghvBmj-6" value="WAL 日志" style="text;html=1;strokeColor=none;fillColor=none;align=center;verticalAlign=middle;whiteSpace=wrap;rounded=0;sketch=1;" vertex="1" parent="1">
          <mxGeometry x="290" y="210" width="40" height="20" as="geometry" />
        </mxCell>
      </root>
    </mxGraphModel>
  </diagram>
  <diagram id="68TFJXybZTwCd-WrtOLN" name="第 2 页">
    <mxGraphModel dx="946" dy="614" grid="1" gridSize="10" guides="1" tooltips="1" connect="1" arrows="1" fold="1" page="1" pageScale="1" pageWidth="827" pageHeight="1169" math="0" shadow="0">
      <root>
        <mxCell id="lMIgg245tZfUysD4X-a3-0" />
        <mxCell id="lMIgg245tZfUysD4X-a3-1" parent="lMIgg245tZfUysD4X-a3-0" />
        <mxCell id="lMIgg245tZfUysD4X-a3-7" value="升级&lt;br&gt;向前兼容" style="edgeStyle=orthogonalEdgeStyle;rounded=0;orthogonalLoop=1;jettySize=auto;html=1;" edge="1" parent="lMIgg245tZfUysD4X-a3-1" source="lMIgg245tZfUysD4X-a3-2" target="lMIgg245tZfUysD4X-a3-3">
          <mxGeometry relative="1" as="geometry" />
        </mxCell>
        <mxCell id="lMIgg245tZfUysD4X-a3-2" value="" style="ellipse;whiteSpace=wrap;html=1;sketch=1;shadow=1;fillColor=#d5e8d4;strokeColor=#82b366;" vertex="1" parent="lMIgg245tZfUysD4X-a3-1">
          <mxGeometry x="130" y="200" width="120" height="80" as="geometry" />
        </mxCell>
        <mxCell id="lMIgg245tZfUysD4X-a3-9" style="edgeStyle=orthogonalEdgeStyle;rounded=0;orthogonalLoop=1;jettySize=auto;html=1;entryX=0.5;entryY=0;entryDx=0;entryDy=0;" edge="1" parent="lMIgg245tZfUysD4X-a3-1" source="lMIgg245tZfUysD4X-a3-3" target="lMIgg245tZfUysD4X-a3-4">
          <mxGeometry relative="1" as="geometry" />
        </mxCell>
        <mxCell id="lMIgg245tZfUysD4X-a3-10" value="新版本启动&lt;br&gt;故障恢复等" style="edgeLabel;html=1;align=center;verticalAlign=middle;resizable=0;points=[];" vertex="1" connectable="0" parent="lMIgg245tZfUysD4X-a3-9">
          <mxGeometry x="-0.1" y="2" relative="1" as="geometry">
            <mxPoint as="offset" />
          </mxGeometry>
        </mxCell>
        <mxCell id="lMIgg245tZfUysD4X-a3-3" value="" style="ellipse;whiteSpace=wrap;html=1;sketch=1;shadow=1;fillColor=#fff2cc;strokeColor=#d6b656;" vertex="1" parent="lMIgg245tZfUysD4X-a3-1">
          <mxGeometry x="420" y="200" width="120" height="80" as="geometry" />
        </mxCell>
        <mxCell id="lMIgg245tZfUysD4X-a3-16" style="edgeStyle=orthogonalEdgeStyle;rounded=0;orthogonalLoop=1;jettySize=auto;html=1;entryX=1;entryY=0.5;entryDx=0;entryDy=0;" edge="1" parent="lMIgg245tZfUysD4X-a3-1" source="lMIgg245tZfUysD4X-a3-4" target="lMIgg245tZfUysD4X-a3-5">
          <mxGeometry relative="1" as="geometry" />
        </mxCell>
        <mxCell id="lMIgg245tZfUysD4X-a3-17" value="出现问题&lt;br&gt;compaction&lt;br&gt;恢复数据" style="edgeLabel;html=1;align=center;verticalAlign=middle;resizable=0;points=[];" vertex="1" connectable="0" parent="lMIgg245tZfUysD4X-a3-16">
          <mxGeometry x="-0.0118" y="-2" relative="1" as="geometry">
            <mxPoint as="offset" />
          </mxGeometry>
        </mxCell>
        <mxCell id="lMIgg245tZfUysD4X-a3-4" value="New exec&lt;br&gt;New_dir" style="ellipse;whiteSpace=wrap;html=1;sketch=1;shadow=1;fillColor=#f8cecc;strokeColor=#b85450;" vertex="1" parent="lMIgg245tZfUysD4X-a3-1">
          <mxGeometry x="420" y="400" width="120" height="80" as="geometry" />
        </mxCell>
        <mxCell id="lMIgg245tZfUysD4X-a3-18" value="降级回老版本" style="edgeStyle=orthogonalEdgeStyle;rounded=0;orthogonalLoop=1;jettySize=auto;html=1;" edge="1" parent="lMIgg245tZfUysD4X-a3-1" source="lMIgg245tZfUysD4X-a3-5" target="lMIgg245tZfUysD4X-a3-2">
          <mxGeometry relative="1" as="geometry" />
        </mxCell>
        <mxCell id="lMIgg245tZfUysD4X-a3-5" value="Old db_dir" style="ellipse;whiteSpace=wrap;html=1;sketch=1;shadow=1;fillColor=#ffe6cc;strokeColor=#d79b00;" vertex="1" parent="lMIgg245tZfUysD4X-a3-1">
          <mxGeometry x="130" y="400" width="120" height="80" as="geometry" />
        </mxCell>
        <mxCell id="lMIgg245tZfUysD4X-a3-6" value="Old exec&lt;br&gt;Old db_dir" style="text;html=1;strokeColor=none;fillColor=none;align=center;verticalAlign=middle;whiteSpace=wrap;rounded=0;shadow=1;sketch=1;" vertex="1" parent="lMIgg245tZfUysD4X-a3-1">
          <mxGeometry x="155" y="230" width="70" height="20" as="geometry" />
        </mxCell>
        <mxCell id="lMIgg245tZfUysD4X-a3-8" value="New exec&lt;br&gt;Old_dir" style="text;html=1;strokeColor=none;fillColor=none;align=center;verticalAlign=middle;whiteSpace=wrap;rounded=0;shadow=1;sketch=1;" vertex="1" parent="lMIgg245tZfUysD4X-a3-1">
          <mxGeometry x="450" y="230" width="70" height="20" as="geometry" />
        </mxCell>
        <mxCell id="lMIgg245tZfUysD4X-a3-11" value="这可能是一个临时状态" style="text;html=1;strokeColor=none;fillColor=none;align=center;verticalAlign=middle;whiteSpace=wrap;rounded=0;shadow=1;sketch=1;" vertex="1" parent="lMIgg245tZfUysD4X-a3-1">
          <mxGeometry x="550" y="190" width="70" height="40" as="geometry" />
        </mxCell>
        <mxCell id="lMIgg245tZfUysD4X-a3-12" value="在这个状态&lt;br&gt;正常读写&lt;br&gt;N次" style="curved=1;endArrow=classic;html=1;exitX=0.058;exitY=0.813;exitDx=0;exitDy=0;exitPerimeter=0;" edge="1" parent="lMIgg245tZfUysD4X-a3-1" source="lMIgg245tZfUysD4X-a3-2" target="lMIgg245tZfUysD4X-a3-2">
          <mxGeometry width="50" height="50" relative="1" as="geometry">
            <mxPoint x="50" y="300" as="sourcePoint" />
            <mxPoint x="100" y="250" as="targetPoint" />
            <Array as="points">
              <mxPoint x="100" y="300" />
              <mxPoint x="70" y="230" />
              <mxPoint x="100" y="170" />
            </Array>
          </mxGeometry>
        </mxCell>
        <mxCell id="lMIgg245tZfUysD4X-a3-13" value="这个状态不能有写操作&lt;br&gt;及compaction操作" style="curved=1;endArrow=classic;html=1;exitX=1;exitY=0;exitDx=0;exitDy=0;entryX=0;entryY=0;entryDx=0;entryDy=0;" edge="1" parent="lMIgg245tZfUysD4X-a3-1" source="lMIgg245tZfUysD4X-a3-3" target="lMIgg245tZfUysD4X-a3-3">
          <mxGeometry width="50" height="50" relative="1" as="geometry">
            <mxPoint x="450" y="190" as="sourcePoint" />
            <mxPoint x="500" y="140" as="targetPoint" />
            <Array as="points">
              <mxPoint x="530" y="180" />
              <mxPoint x="450" y="140" />
            </Array>
          </mxGeometry>
        </mxCell>
        <mxCell id="lMIgg245tZfUysD4X-a3-14" value="" style="curved=1;endArrow=classic;html=1;exitX=1;exitY=0;exitDx=0;exitDy=0;entryX=0.667;entryY=1.038;entryDx=0;entryDy=0;entryPerimeter=0;" edge="1" parent="lMIgg245tZfUysD4X-a3-1" source="lMIgg245tZfUysD4X-a3-4" target="lMIgg245tZfUysD4X-a3-4">
          <mxGeometry width="50" height="50" relative="1" as="geometry">
            <mxPoint x="550" y="470" as="sourcePoint" />
            <mxPoint x="600" y="420" as="targetPoint" />
            <Array as="points">
              <mxPoint x="600" y="420" />
              <mxPoint x="580" y="470" />
            </Array>
          </mxGeometry>
        </mxCell>
        <mxCell id="lMIgg245tZfUysD4X-a3-15" value="升级成功&lt;br&gt;可以稳态提供服务" style="edgeLabel;html=1;align=center;verticalAlign=middle;resizable=0;points=[];" vertex="1" connectable="0" parent="lMIgg245tZfUysD4X-a3-14">
          <mxGeometry x="0.0033" y="1" relative="1" as="geometry">
            <mxPoint as="offset" />
          </mxGeometry>
        </mxCell>
      </root>
    </mxGraphModel>
  </diagram>
</mxfile>
